# xmcd CD database file
#
# Track frame offsets:
#	150
#	22691
#	38499
#	51051
#	64530
#	115242
#	133951
#	205595
#
# Disc length: 3030 seconds
#
# Revision: 0
# Processed by: cddbd v1.5.2PL0 Copyright (c) Steve Scherf et al.
# Submitted via: CDex 1.70beta1
#
DISCID=5f0bd408
DTITLE=Henrik Otto Donner and Tumo - And it happened...
DYEAR=2013
DGENRE=Jazz
TTITLE0=Junnuda?
TTITLE1=Close your eyes
TTITLE2=Entreaty
TTITLE3=The first summer
TTITLE4=Have me, hold me
TTITLE5=These are the days
TTITLE6=And it happened...
TTITLE7=For friends and relatives
EXTD=YEAR: 2013
EXTT0=
EXTT1=
EXTT2=
EXTT3=
EXTT4=
EXTT5=
EXTT6=
EXTT7=
PLAYORDER=
